<svg width="16" height="16" viewBox="0 0 16 16" fill="none" xmlns="http://www.w3.org/2000/svg">
<g clip-path="url(#clip0_1_856)">
<path d="M14.4931 3.54013L8.61535 0.14664C8.27676 -0.04888 7.72262 -0.04888 7.38404 0.14664L1.50628 3.54013C1.16765 3.73561 0.890625 4.21549 0.890625 4.60649V11.3935C0.916968 11.8489 1.14955 12.226 1.50628 12.4599L7.38404 15.8534C7.72262 16.0489 8.27676 16.0489 8.61535 15.8534L14.4931 12.4599C14.8759 12.2053 15.0937 11.8221 15.1088 11.3935V4.60649C15.095 4.19509 14.8486 3.78015 14.4931 3.54013ZM3.26031 8.00002C3.23247 3.37225 9.43091 1.3288 12.1039 5.62885L10.0529 6.81574C8.81469 4.76781 5.74034 5.50007 5.63 8.00002C5.66314 10.3041 8.6848 11.3743 10.053 9.18417L12.1041 10.371C9.74836 14.4605 3.37912 12.9892 3.26031 8.00002ZM12.7391 8.26329H12.2124V8.78992H11.6859V8.26329H11.1593V7.73671H11.6859V7.21013H12.2124V7.73671H12.7391V8.26329ZM14.7138 8.26329H14.1872V8.78992H13.6607V8.26329H13.134V7.73671H13.6607V7.21013H14.1872V7.73671H14.7138V8.26329Z" fill="#1E9CEF"/>
</g>
<defs>
<clipPath id="clip0_1_856">
<rect width="16" height="16" fill="white"/>
</clipPath>
</defs>
</svg>
