<svg width="16" height="16" viewBox="0 0 16 16" fill="none" xmlns="http://www.w3.org/2000/svg">
<g clip-path="url(#clip0_1_1249)">
<path d="M1.3041 8.20906C1.20259 4.45869 4.00951 1.14882 7.65836 0.551086C4.79039 0.597939 2.50737 1.77139 1.06913 4.28015C-0.449333 6.92735 -0.344979 9.6292 1.34812 12.1685C2.83676 14.4004 5.0211 15.4312 7.68817 15.4489C3.93355 14.8065 1.39497 11.5768 1.3041 8.20906ZM2.05588 5.7326C1.97779 5.93989 1.98773 5.94343 2.21348 5.94343H15.7375C15.7237 5.90264 15.7219 5.89175 15.6702 5.74892C15.1335 4.15024 14.1262 2.91148 12.7355 1.98649C11.1574 0.936558 9.40114 0.635563 7.56394 0.979861C4.82659 1.4924 3.03127 3.15142 2.05588 5.7326ZM1.92029 6.74916C1.828 6.73497 1.80387 6.7804 1.79251 6.86346C1.76482 7.07146 1.74069 7.27945 1.72649 7.48958C1.72081 7.57548 1.73714 7.59962 1.82445 7.59891L15.8903 7.59962C15.9953 7.60033 16.0053 7.5556 15.9968 7.47609C15.9755 7.28513 15.9428 7.09417 15.9357 6.9025C15.9307 6.76762 15.8782 6.74704 15.7547 6.74704L1.92029 6.74916ZM15.8917 8.40108C15.1676 8.40534 1.828 8.40108 1.828 8.40108C1.74708 8.40037 1.71939 8.41457 1.72649 8.50615C1.74211 8.72125 1.76269 8.93493 1.79606 9.1486C1.806 9.21249 1.81736 9.25154 1.89899 9.25154L15.8214 9.25012C15.8803 9.25012 15.9208 9.24089 15.9272 9.16777C15.9478 8.94699 15.9719 8.72693 15.9982 8.50686C16.0088 8.41954 15.9726 8.40038 15.8917 8.40108ZM4.08404 8.92783C4.08333 8.92641 4.08333 8.92499 4.08262 8.92357C4.08334 8.92428 4.08404 8.92499 4.08475 8.92499C4.08475 8.9257 4.08404 8.92641 4.08404 8.92783ZM2.03476 10.0949C2.01602 10.1675 2.04381 10.2198 2.06511 10.2851C3.01139 13.1169 6.12286 15.8855 10.4582 14.9704C12.2109 14.6006 13.5647 13.6039 14.6409 12.204C15.1129 11.5892 15.5018 10.9205 15.6872 10.1638C15.7104 10.0694 15.6084 10.0566 15.5559 10.0566L2.17727 10.0544C2.17727 10.0544 2.04629 10.0501 2.03476 10.0949Z" fill="#7963E6"/>
</g>
<defs>
<clipPath id="clip0_1_1249">
<rect width="16" height="16" fill="white"/>
</clipPath>
</defs>
</svg>
