<svg width="16" height="16" viewBox="0 0 16 16" fill="none" xmlns="http://www.w3.org/2000/svg">
<g clip-path="url(#clip0_1_1404)">
<path fill-rule="evenodd" clip-rule="evenodd" d="M4.78129 13.5791C3.10371 12.596 1.67099 10.2228 0.930474 8.14121C0.633035 7.23821 0.531168 6.27007 0.14773 5.40196C-0.253384 4.77145 0.216467 4.08219 0.907117 3.88177C1.21461 3.82275 1.75528 3.53272 1.10264 3.74002C0.517524 4.16931 0.460897 3.35035 1.06088 3.29849C1.47035 3.24406 1.62108 2.90886 1.48106 2.6071C1.04152 2.32048 2.54687 2.00547 1.78944 1.57778C1.0004 0.726496 2.89313 0.562621 2.42617 1.52942C2.31439 2.27285 3.74873 1.39316 3.41593 2.25166C3.75418 2.66394 4.68261 2.3455 4.65957 2.92389C5.15232 2.95776 5.32144 3.37236 5.784 3.40419C6.2634 3.62068 7.13247 3.79128 7.2956 4.33151C6.81998 4.70806 5.71862 3.55372 5.66571 4.59604C5.86642 8.27271 6.05657 9.54038 7.83194 11.4665C9.02783 12.8196 10.6711 13.4577 12.0583 13.6849C12.3572 13.4563 12.8847 12.6066 13.3509 12.9649C13.373 13.3675 12.4256 13.8065 13.3063 13.762C13.8234 13.606 14.1821 14.1619 14.6079 13.6605C15.0002 14.1252 16.2386 13.3636 15.9594 14.3134C15.582 14.557 15.0314 14.4098 14.6534 14.7448C14.03 14.4335 13.5337 15.0234 12.8436 14.9488C10.1832 15.4144 6.7163 14.9944 4.78129 13.5791ZM7.9082 14.7297C9.06802 14.8911 10.2657 15.1392 11.4297 14.9128C10.9029 14.675 10.3583 15.0055 9.83347 14.7428C9.20402 14.8782 8.52855 14.7082 7.88864 14.6246C7.16096 14.3004 6.37566 14.0776 5.69422 13.6568C4.84273 13.3458 6.1346 14.0557 6.36455 14.1132C6.89684 14.4153 5.7792 13.9583 5.62164 13.8327C5.17581 13.5826 5.10771 13.6409 5.56621 13.8949C6.28115 14.3378 7.17715 14.638 7.9082 14.7297ZM4.58855 13.1485C5.23495 13.388 4.5857 12.694 4.2895 12.7343C4.15826 12.5066 3.78811 12.3628 4.04922 12.2405C3.57953 12.4035 3.5572 11.6204 3.33643 11.7323C2.83954 11.5754 3.14304 11.0196 2.55116 10.6783C2.49714 10.3186 1.96311 10.0067 1.79277 9.4642C1.71755 9.18645 1.18944 8.38883 1.51385 9.13113C1.79008 9.84572 2.27608 10.4577 2.68052 11.0689C2.99457 11.6509 3.3654 12.2592 3.93734 12.6222C4.13014 12.8072 4.31629 13.0906 4.58855 13.1485ZM5.421 12.0222C5.06733 11.8336 4.2974 11.7361 4.84072 12.1674C5.1895 12.3083 6.07842 12.3767 5.421 12.0222ZM6.01379 12.7717C6.77338 12.9866 5.37504 12.2913 5.82637 12.6926L6.01379 12.7717ZM6.02023 12.3692C6.57205 12.4403 5.36365 11.9939 5.89916 12.3292L6.02023 12.3692ZM7.93804 13.5484C8.45323 13.2404 8.28338 14.2696 8.81208 13.6353C9.33361 13.2546 8.36171 14.1061 9.00446 13.7032C9.46929 13.3923 10.1559 13.8506 10.5896 14.0001C10.9015 13.9848 11.2048 14.2699 11.5245 14.0964C12.1401 13.9306 10.3208 13.8505 10.7977 13.5564C10.2345 13.7203 9.81834 13.361 9.54119 13.0002C8.90942 12.8543 8.17894 12.5313 7.86363 11.9722C7.73508 11.7623 8.04935 12.0018 7.75266 11.6586C7.37196 11.32 7.18187 10.9357 6.92631 10.5241C6.62101 10.3612 6.58544 9.88179 6.55458 10.508C6.55699 10.1128 6.18597 9.84679 6.09541 9.95736C6.09378 9.57676 6.49248 9.76754 6.21338 9.48594C6.15331 9.09146 5.95551 8.6804 5.89606 8.23502C5.80369 8.02033 5.88305 7.56051 5.58079 8.04653C5.47067 8.56017 5.54424 7.41532 5.71549 7.79285C5.94026 7.40762 5.6348 7.45292 5.62228 7.50641C5.7687 7.18138 5.71495 6.72034 5.58408 6.89622C5.6621 6.55173 5.70733 5.62838 5.46731 5.792C5.6128 5.43176 5.74324 4.14361 5.11162 4.63474C4.85563 4.63834 4.41234 4.72767 4.2028 4.83188C4.8598 5.19403 4.13671 4.96266 3.86927 4.9051C3.83442 5.24021 3.56952 5.09528 3.23858 5.09856C3.76717 5.16396 2.98118 5.63918 2.67795 5.45458C2.28413 5.6428 3.01782 6.11263 2.68585 6.2579C2.72665 6.47691 2.08252 6.17881 2.13311 6.68458C1.75079 6.52374 2.08046 7.28453 2.27174 7.02723C2.92199 7.20322 2.7295 7.60445 2.74606 7.98559C2.64011 8.20767 2.22298 7.46356 2.65316 7.49802C2.31378 6.94671 2.27775 7.29875 1.99573 7.55486C1.93012 7.57346 2.71508 7.91927 2.22248 8.09026C2.65587 8.15714 2.6682 8.53639 2.75643 8.77638C3.01692 9.0477 2.9636 8.47679 3.27529 8.80285C3.07805 8.51237 2.23056 7.9844 2.9129 8.15373C2.90926 7.86138 2.7895 7.62563 2.99855 7.63135C3.20557 7.25643 2.78173 8.55573 3.24837 8.07924C3.37754 8.02284 3.40954 7.70385 3.64172 8.10937C3.97896 8.44112 3.76353 8.68152 3.28782 8.37775C3.37293 8.66647 3.9242 8.76965 3.8206 9.22115C3.93043 9.61825 4.08408 9.47199 4.21801 9.44903C4.32307 9.83487 4.38273 9.55116 4.38772 9.36755C4.86877 9.47053 4.75609 9.75489 4.90661 9.95356C5.2381 10.1032 4.43214 8.93936 5.00125 9.60361C5.6 10.1442 5.22904 10.3305 4.68847 10.2832C5.1381 10.32 5.14755 10.7206 5.56361 10.7259C5.92526 10.9124 6.21027 11.612 5.54163 11.3169C5.16458 11.083 4.49293 10.8571 5.16324 11.2548C5.32192 11.3553 6.27404 11.713 6.87113 12.0729C7.20171 12.2989 7.48306 12.7274 7.64502 12.7965C7.28588 12.9681 6.56271 12.6596 7.0997 12.565C6.76476 12.504 6.39966 12.3322 6.70886 12.7519C6.97471 12.995 7.67535 12.9556 7.7997 12.9814C7.6943 13.2136 7.51339 13.2321 7.80402 13.2501C7.47979 13.4229 7.90799 13.4497 7.93804 13.5484ZM7.23998 11.4196C7.02674 11.0833 7.07775 11.4697 7.27501 11.676C7.59029 12.051 7.34934 11.4635 7.23998 11.4196ZM6.06276 9.68025C6.06276 9.68025 6.11533 9.32555 5.95316 9.28632C5.79099 9.24709 5.88032 9.31239 6.01009 9.59317C6.04104 9.66013 6.06015 9.68336 6.05989 9.68182M4.28765 8.33583C4.12656 7.97504 4.3643 8.17095 4.32968 8.01708C4.25533 7.8624 3.53257 7.04097 3.86179 7.66111C4.15971 8.4009 3.67434 7.56824 3.6237 7.31619C3.56773 7.47096 3.74158 7.97793 3.84668 8.15071C4.11422 8.56273 3.99388 7.92506 4.28765 8.33583ZM2.80758 6.9132C2.38926 6.56133 2.93653 7.08665 2.76667 7.08002C2.32582 6.75806 2.50601 6.98615 2.75502 7.23359C3.02479 7.63442 3.24744 6.99341 2.80758 6.9132ZM3.02233 6.9737C3.81367 7.19112 2.1802 6.21007 2.90407 6.85427L3.02233 6.9737ZM5.21221 7.909C4.98508 7.91362 5.30642 7.41442 5.00189 7.51293C4.89507 6.73706 4.66483 7.87149 4.97808 8.05931C5.0748 8.33721 5.17642 8.22397 5.21221 7.909ZM3.34392 6.80532C4.3976 7.2916 2.58103 6.00097 3.04607 6.64258C3.10134 6.76624 3.23382 6.77652 3.34392 6.80532ZM3.46468 6.55325C4.26272 6.88312 3.3937 6.33859 3.11731 6.39771C3.18698 6.49969 3.37601 6.45509 3.46468 6.55325ZM3.57154 6.25465C3.8306 6.2029 3.53719 6.11984 3.38238 5.99683C3.02411 5.45862 3.43567 6.04029 3.32305 6.20548C3.47217 6.35204 3.97897 6.61407 3.57154 6.25465ZM5.40428 5.41961C5.29849 5.97872 5.19059 5.74553 5.34224 5.32868C5.30596 4.7937 4.98084 5.65631 5.12452 5.90951C5.36208 6.28792 5.59965 4.97959 5.40428 5.41961ZM5.72018 12.0764C6.13164 12.182 6.12954 12.0124 5.75766 11.962C5.55763 11.7759 4.92648 11.5785 5.49139 11.9389C5.52881 12.0337 5.64703 12.0314 5.72018 12.0764ZM4.25926 11.106C4.48594 11.2751 5.1131 11.5851 4.58219 11.1704C4.76119 10.9624 4.23958 10.8517 4.41261 10.7126C3.9725 10.4433 4.06542 10.4672 4.37376 10.4757C3.84483 10.2393 4.45011 10.257 4.42161 10.1358C4.21766 10.0956 3.40858 9.77622 3.88456 10.1621C3.4007 9.91537 3.76925 10.254 3.62301 10.2182C3.12823 10.0833 4.06364 10.595 3.54443 10.468C3.82828 10.6929 4.30846 11.0442 3.66443 10.706C3.57958 10.8282 4.12531 11.0133 4.25926 11.106ZM9.40035 14.121C9.61738 13.9107 9.40922 14.456 9.75997 14.0695C9.76376 13.7929 9.74917 13.6295 9.3569 13.9655C9.24877 14.0255 9.20049 14.2805 9.40035 14.121ZM5.84627 11.8392C6.0877 12.0536 6.9551 11.9965 6.1395 11.8656C6.0187 11.687 5.37246 11.7299 5.84627 11.8392ZM1.86977 9.16807C1.51908 8.66769 1.65177 8.44277 1.31358 8.0342C1.24955 7.72177 0.733395 7.01279 1.04661 7.7639C1.33349 8.20318 1.41874 8.88333 1.86977 9.16807ZM12.2605 14.1066C12.6017 14.0374 13.3792 14.2802 13.5049 14.0161C13.0905 14.006 12.0713 13.7238 12.0231 14.0835L12.2605 14.1066ZM0.641723 5.4845C0.579537 5.12802 0.504338 4.50228 1.09915 4.71374C0.305175 4.87138 1.64867 5.70057 1.47901 5.0459C1.81286 5.06224 2.13209 4.84859 1.95689 5.17282C2.61467 5.10017 3.0707 4.52978 3.70607 4.60971C4.20099 4.54422 4.74212 4.49455 5.27546 4.29532C5.71397 4.26373 6.1361 3.79161 5.89574 3.51178C5.29774 3.46118 4.67176 3.536 4.01081 3.66737C3.27838 3.81963 2.6131 4.10892 1.8741 4.23309C1.15379 4.32985 2.01899 4.49969 1.81266 4.53753C1.43679 4.66794 2.26091 4.75589 1.76393 4.89337C1.45701 4.83501 1.13753 4.72955 1.26864 4.40611C0.578642 4.49564 -0.0276661 4.78202 0.517473 5.48418L0.641723 5.4845ZM2.48582 4.71689C3.08739 5.12815 2.38244 4.04174 2.22066 4.63773C2.2958 4.61925 2.41397 4.66311 2.48582 4.71689ZM2.65705 4.44132C3.22732 4.49867 2.56969 4.07924 2.54861 4.34259L2.65705 4.44132ZM3.61277 4.09205C4.45451 3.93183 3.30454 3.82463 3.05793 4.12095C3.21421 4.19221 3.38716 3.92219 3.61277 4.09205ZM5.05654 3.8053C5.58865 3.72358 5.14018 3.47933 4.9845 3.88728C5.04094 4.01591 5.06809 3.84871 5.05654 3.8053ZM2.19418 5.9791C2.49493 5.95844 2.66473 5.64734 2.13601 5.66522C1.31659 5.58039 2.85897 5.9458 2.03089 5.84132C1.91963 5.915 2.18771 5.99949 2.19418 5.9791ZM1.77303 3.60341C2.30979 3.42081 2.98739 3.26571 3.28949 3.70609C3.06226 3.3855 3.19315 3.07727 3.43676 3.53116C3.78123 3.99039 3.90484 3.41317 3.72963 3.16825C3.89633 3.4319 4.5152 4.00599 3.90059 3.1883C4.30784 2.69841 3.08512 3.25245 2.8072 3.24687C2.67349 3.30689 1.42669 3.56484 1.77303 3.60341ZM2.0876 3.00095C2.39372 2.7699 3.14632 3.13838 2.66338 2.77133C2.61616 2.72962 1.60574 3.04967 2.0876 3.00095ZM3.20361 3.04702C3.56188 3.05617 3.04908 2.56573 3.476 2.78796C3.40588 2.5589 2.97894 2.51602 2.77022 2.42451C2.65216 2.63393 3.01052 3.04984 3.20361 3.04702ZM1.88773 1.47671C1.48121 0.946039 2.65225 1.56592 2.23922 1.01028C1.8916 0.733467 1.55755 1.3218 1.88773 1.47671ZM7.10476 4.28676C7.29121 3.95623 6.33498 3.84122 6.97914 4.16961C7.03844 4.18943 7.02502 4.30962 7.10476 4.28676Z" fill="#F48FB1"/>
</g>
<defs>
<clipPath id="clip0_1_1404">
<rect width="16" height="16" fill="white"/>
</clipPath>
</defs>
</svg>
