<svg width="16" height="16" viewBox="0 0 16 16" fill="none" xmlns="http://www.w3.org/2000/svg">
<path d="M8 14.448L10.578 6.51453H5.422L8 14.448Z" fill="#E24329"/>
<path d="M7.99995 14.448L5.42195 6.51453H1.80945L7.99995 14.448Z" fill="#E24329"/>
<path d="M1.80946 6.51453L1.02596 8.92553C0.991158 9.0327 0.991185 9.14814 1.02604 9.2553C1.06089 9.36246 1.12877 9.45583 1.21996 9.52203L7.99996 14.45L1.80946 6.51453Z" fill="#E24329"/>
<path d="M1.80945 6.51449H5.42195L3.86945 1.73649C3.85194 1.68299 3.81797 1.6364 3.7724 1.60337C3.72683 1.57034 3.67198 1.55255 3.6157 1.55255C3.55941 1.55255 3.50457 1.57034 3.459 1.60337C3.41343 1.6364 3.37946 1.68299 3.36195 1.73649L1.80945 6.51449Z" fill="#E24329"/>
<path d="M8 14.448L10.578 6.51453H14.1905L8 14.448Z" fill="#E24329"/>
<path d="M14.1905 6.51453L14.974 8.92553C15.0088 9.0327 15.0088 9.14814 14.9739 9.2553C14.9391 9.36246 14.8712 9.45583 14.78 9.52203L8 14.45L14.1905 6.51453Z" fill="#E24329"/>
<path d="M14.1905 6.5145H10.578L12.1305 1.736C12.148 1.68251 12.182 1.63592 12.2276 1.60288C12.2731 1.56985 12.328 1.55206 12.3843 1.55206C12.4405 1.55206 12.4954 1.56985 12.541 1.60288C12.5865 1.63592 12.6205 1.68251 12.638 1.736L14.1905 6.5145Z" fill="#E24329"/>
</svg>
