<svg width="16" height="16" viewBox="0 0 16 16" fill="none" xmlns="http://www.w3.org/2000/svg">
<g clip-path="url(#clip0_1_2819)">
<path d="M7.81285 8.34013C8.2635 8.18526 8.71771 8.03882 9.17541 7.90064C9.23571 8.07981 9.31646 9.06048 9.29966 9.27964C8.79865 9.0015 8.30321 8.68728 7.81285 8.34013ZM7.5179 8.41972C8.15351 8.80208 8.77548 9.16072 9.29021 9.40314C8.70762 9.82602 8.01152 10.1954 7.22657 10.5228C7.40059 9.83801 7.52181 9.25584 7.5179 8.41972ZM5.88331 9.07676C5.92076 9.04952 7.19729 8.55593 7.20682 8.56546C7.24539 9.25486 7.12702 9.82584 6.91543 10.4942C6.42546 10.1003 6.08377 9.62658 5.88331 9.07676ZM4.4148 11.5388C4.83672 10.8108 5.23222 10.0514 5.53046 9.2523C5.53806 9.21234 5.61038 9.17998 5.63005 9.19249C5.86522 9.81455 6.28047 10.3315 6.7575 10.7137C6.02832 11.0124 5.19931 11.2873 4.4148 11.5388ZM5.13782 9.38993C4.82268 10.0847 4.41166 10.8098 3.93245 11.5565C3.67271 11.0938 3.61989 10.5895 3.74634 10.0491C4.13357 9.84784 4.60936 9.62523 5.13782 9.38993ZM9.31702 9.55843C9.31608 10.2337 9.25439 10.9358 9.14647 11.6564C8.52082 11.4828 7.9116 11.1796 7.31371 10.787C8.01801 10.428 8.75195 10.0028 9.31702 9.55843ZM3.31603 10.27C3.19799 10.8356 3.28609 11.3088 3.57126 11.8014C2.76966 12.046 1.95793 12.2819 1.13677 12.5097C1.12204 12.2565 1.57401 11.0695 3.31603 10.27ZM6.19513 12.9731C6.56158 12.2918 6.87696 11.6164 7.08802 10.9531C7.726 11.3206 8.4086 11.585 9.1315 11.7578C8.34437 12.154 7.31731 12.5614 6.19513 12.9731ZM6.702 11.0787C6.41196 11.799 6.0563 12.4953 5.65116 13.1732C5.03206 12.8185 4.54623 12.4071 4.17923 11.945C5.01282 11.7326 5.85414 11.4423 6.702 11.0787ZM8.4711 14.1243C7.58525 13.9678 6.77564 13.7189 6.04467 13.3748C6.34578 13.2293 8.16467 12.4396 9.09752 11.9146C8.96626 12.5615 8.73708 13.3217 8.4711 14.1243ZM3.57092 12.1047C3.00633 12.9381 2.36275 13.8073 2.12452 14.1863C1.52577 13.6956 1.18157 13.1802 1.13203 12.6778C1.88488 12.4968 2.70543 12.3043 3.57092 12.1047ZM2.33966 14.3449L2.24639 14.2809C2.7031 13.6226 3.28547 12.9165 3.88137 12.2228C4.43817 12.8959 5.07226 13.2042 5.22633 13.3251C4.26948 13.6716 3.3072 14.0115 2.33966 14.3449ZM4.6592 15.3423C4.63606 15.3471 4.55504 15.326 4.55504 15.3151C5.04161 14.7178 5.47797 14.141 5.81455 13.6049C6.57658 13.8993 7.42473 14.1154 8.40079 14.2154C7.05483 14.6765 5.67763 15.0418 4.6592 15.3423ZM5.38632 13.6168C4.96596 14.2835 4.51968 14.9888 4.36101 15.2702C3.6434 15.05 2.89324 14.7505 2.4781 14.4332C3.46886 14.1678 4.43928 13.8962 5.38632 13.6168ZM8.40472 14.3245C8.20365 14.9291 7.87735 15.8536 7.81888 15.8788C6.78244 15.739 5.81602 15.5822 4.93289 15.405C5.99024 15.1907 7.38286 14.8351 8.40472 14.3245ZM6.56583 0.124679C6.66666 0.97455 6.89632 1.45177 6.88452 1.52939C6.12129 1.3701 5.28999 1.23447 4.41411 1.11118C5.07758 0.73172 5.80063 0.407334 6.56583 0.124679ZM5.48708 2.41767L5.69677 2.45103C6.08834 2.21285 6.52444 1.97506 6.98964 1.73754C5.98184 1.64409 4.98417 1.45538 4.22893 1.20922L5.48708 2.41767ZM4.13395 1.28547C4.13395 1.28547 4.96557 2.31964 4.96353 2.321C4.40374 2.22186 3.91372 2.11927 3.54539 1.99012C3.54999 1.71552 3.87227 1.47503 4.13395 1.28547ZM6.11411 2.51571C6.42393 2.34294 6.75784 2.1049 7.04025 1.8606C7.20436 2.20014 7.36756 2.51579 7.50621 2.74607C6.96175 2.65804 6.24722 2.54622 6.11411 2.51571ZM7.86898 2.79523C7.33737 1.8536 6.86677 0.917152 6.62313 0C5.4194 0.383787 4.31042 0.816389 3.44803 1.37602C2.98024 1.71509 3.04692 1.85455 3.36157 2.14943C6.45909 4.5322 6.31323 7.40779 1.84947 11.0763C-0.213297 12.8174 0.668977 14.0201 2.68551 15.0155C4.09922 15.6673 6.82334 16.0357 7.93462 15.9973C9.22008 13.7945 10.0119 10.846 9.55301 7.82067C11.5351 7.23573 13.4624 6.76115 15.3004 6.4665C13.9804 4.13702 11.1788 3.30538 7.86898 2.79523ZM3.76121 2.27606C4.00209 2.35818 4.38596 2.4607 4.78992 2.56609C4.92025 2.93336 5.05364 3.38816 5.1882 3.87667C4.83766 3.27021 4.34537 2.71736 3.76121 2.27606ZM6.85144 2.97322C6.32365 3.26956 5.83594 3.59373 5.45848 3.99445C5.3283 3.51544 5.15761 3.05245 4.95059 2.60694C4.95059 2.60626 4.95128 2.60626 4.95332 2.60558L4.954 2.60558C5.05986 2.61779 6.1348 2.84825 6.85144 2.97322ZM7.23406 4.6174C6.6564 4.43452 6.13598 4.28515 5.69337 4.15716C5.98999 3.80404 6.47041 3.41443 7.05296 3.00454C7.2418 3.51375 7.28911 4.05662 7.23406 4.6174ZM7.21976 3.02837C7.9793 3.14321 8.74937 3.28769 9.52909 3.45933C8.73064 3.82969 8.03895 4.20254 7.51455 4.57927C7.51723 4.00727 7.41675 3.49151 7.21976 3.02837ZM9.02937 5.42144C8.62154 5.18594 8.19358 4.98002 7.74807 4.79986C8.30048 4.38939 8.99038 3.96801 9.79393 3.53762C9.74363 4.03209 9.44895 4.72774 9.02937 5.42144ZM9.97707 3.56689C10.8208 3.77467 11.6607 4.05961 12.4961 4.43834C11.4816 4.65648 10.4313 4.97239 9.44059 5.384C9.73686 4.77066 9.90986 4.16489 9.97707 3.56689ZM5.63958 6.19826C5.69349 5.75688 5.66884 5.20478 5.5892 4.57519C6.03909 4.66257 6.50173 4.80516 6.97739 4.98708C6.53295 5.3596 6.08681 5.76758 5.63958 6.19826ZM10.7518 7.09625C10.4378 6.61093 10.0258 6.15134 9.47395 5.72849C10.3768 5.31396 11.4357 4.93067 12.6643 4.58131C12.1634 5.37221 11.425 6.24691 10.7518 7.09625ZM12.8498 4.63033C13.602 5.0147 14.3345 5.59944 15.0478 6.3705C13.6559 6.47791 12.3506 6.70701 11.0609 7.02273C11.7206 6.42842 12.4763 5.57408 12.8498 4.63033ZM6.87867 6.71023C7.13079 6.2382 7.3277 5.7318 7.4466 5.17686C7.81446 5.33494 8.2024 5.53094 8.60522 5.75504C8.0169 6.04432 7.44222 6.36463 6.87867 6.71023ZM7.13976 5.23932C6.99878 5.85352 6.75244 6.44398 6.39665 7.00979C6.1905 6.7876 5.95676 6.60848 5.69269 6.47671C6.11871 6.06145 6.60121 5.649 7.13976 5.23932ZM9.06614 6.03146C9.61103 6.3824 10.0977 6.75824 10.5088 7.16638C9.36176 7.47242 8.21487 7.84087 7.11032 8.25451C7.89448 7.5456 8.56601 6.79973 9.06614 6.03146ZM6.57441 7.24313C7.15691 6.88487 7.81905 6.52329 8.56063 6.15911C8.05505 6.89821 7.47772 7.62679 6.85212 8.34828C6.85153 7.96914 6.75608 7.6011 6.57441 7.24313ZM4.91722 8.11843C5.15499 7.76019 5.34956 7.35808 5.50002 6.90835C5.69172 6.99673 5.87541 7.11852 6.04591 7.257C5.61131 7.57888 5.21651 7.87707 4.91722 8.11843ZM6.31291 7.549C6.47472 7.70375 6.65737 8.10325 6.68396 8.41976C5.69548 8.79695 4.84677 9.15233 4.22076 9.47299C5.0504 8.8663 5.78012 8.23344 6.31291 7.549ZM4.50942 8.67711C4.59997 8.55933 4.61768 8.54231 4.75111 8.44632C5.10991 8.18761 5.92927 7.63206 5.9388 7.64159C5.35097 8.35859 4.65248 8.9682 3.83405 9.46142C3.80619 9.46161 4.32323 8.94978 4.50942 8.67711Z" fill="#F6251F"/>
</g>
<defs>
<clipPath id="clip0_1_2819">
<rect width="16" height="16" fill="white"/>
</clipPath>
</defs>
</svg>
