<svg width="16" height="16" viewBox="0 0 16 16" fill="none" xmlns="http://www.w3.org/2000/svg">
<path d="M9.22009 2.20952H1.9036C1.48978 2.19073 1.50786 1.60335 1.9036 1.6H9.22009C9.61787 1.60602 9.6321 2.18913 9.22009 2.20952ZM1.90351 4.64762C1.48981 4.62882 1.50788 4.04145 1.90351 4.03809H6.17256C6.57022 4.04412 6.58445 4.62722 6.17256 4.64762H1.90351ZM4.95113 3.42857C4.53743 3.40978 4.5555 2.8224 4.95113 2.81905L11.0488 2.81905C11.4464 2.82507 11.4606 3.40817 11.0488 3.42857H4.95113ZM9.82965 4.03809C10.2273 4.04412 10.2416 4.62722 9.82971 4.64762H7.38922C6.97553 4.62882 6.9936 4.04145 7.38922 4.03809H9.82965ZM11.0464 4.64762C10.6327 4.62882 10.6507 4.04145 11.0464 4.03809H11.6583C12.0559 4.04412 12.0702 4.62722 11.6583 4.64762H11.0464ZM1.90351 5.86667C1.48981 5.84787 1.50788 5.2605 1.90351 5.25714L3.12495 5.25714C3.52261 5.26317 3.53683 5.84627 3.12495 5.86667H1.90351ZM9.2178 5.86667C8.8041 5.84787 8.82217 5.2605 9.2178 5.25714L12.2678 5.25714C12.6655 5.26317 12.6797 5.84627 12.2678 5.86667H9.2178ZM4.3416 5.86667C3.92791 5.84787 3.94598 5.2605 4.3416 5.25714L4.95352 5.25714C5.35118 5.26317 5.3654 5.84627 4.95352 5.86667H4.3416ZM1.90351 13.181C1.48981 13.1622 1.50788 12.5748 1.90351 12.5714H3.12495C3.52261 12.5775 3.53683 13.1606 3.12495 13.181H1.90351ZM4.3416 13.181C3.92791 13.1622 3.94598 12.5748 4.3416 12.5714H4.95352C5.35118 12.5775 5.3654 13.1606 4.95352 13.181H4.3416ZM9.2178 7.08571C8.8041 7.06692 8.82217 6.47955 9.2178 6.47619H12.2678C12.6655 6.48221 12.6797 7.06532 12.2678 7.08571H9.2178ZM1.90351 7.08571C1.48981 7.06692 1.50788 6.47955 1.90351 6.47619H4.95352C5.35118 6.48221 5.3654 7.06532 4.95352 7.08571H1.90351ZM1.90351 11.9619C1.48981 11.9431 1.50788 11.3557 1.90351 11.3524H4.95352C5.35118 11.3584 5.3654 11.9415 4.95352 11.9619H1.90351ZM1.90351 14.4C1.48981 14.3812 1.50788 13.7938 1.90351 13.7905H4.95352C5.35118 13.7965 5.3654 14.3796 4.95352 14.4H1.90351ZM1.90351 8.30476C1.48981 8.28597 1.50788 7.69859 1.90351 7.69524H2.51542C2.91308 7.70126 2.9273 8.28436 2.51542 8.30476L1.90351 8.30476ZM3.73208 8.30476C3.31838 8.28597 3.33646 7.69859 3.73208 7.69524H5.56304C5.9607 7.70126 5.97492 8.28436 5.56304 8.30476L3.73208 8.30476ZM6.7797 8.30476C6.366 8.28597 6.38407 7.69859 6.7797 7.69524H11.6583C12.0559 7.70126 12.0702 8.28436 11.6583 8.30476L6.7797 8.30476ZM9.2178 9.52381C8.8041 9.50502 8.82217 8.91764 9.2178 8.91428H11.0488C11.4464 8.92031 11.4606 9.50341 11.0488 9.52381H9.2178ZM5.56065 9.52381C5.14695 9.50502 5.16503 8.91764 5.56065 8.91428H8.00114C8.3988 8.92031 8.41302 9.50341 8.00114 9.52381H5.56065ZM1.90351 9.52381C1.48981 9.50502 1.50788 8.91764 1.90351 8.91428H4.34399C4.74165 8.92031 4.75587 9.50341 4.34399 9.52381H1.90351ZM1.90351 10.7429C1.48981 10.7241 1.50788 10.1367 1.90351 10.1333H2.51542C2.91308 10.1394 2.9273 10.7225 2.51542 10.7429H1.90351ZM3.73208 10.7429C3.31838 10.7241 3.33646 10.1367 3.73208 10.1333H9.22018C9.61784 10.1394 9.63207 10.7225 9.22018 10.7429H3.73208ZM1.90351 3.42857C1.48981 3.40978 1.50788 2.8224 1.90351 2.81905L3.73331 2.81905C4.13249 2.82507 4.14676 3.40817 3.73331 3.42857H1.90351Z" fill="#EE6292"/>
</svg>
