<svg width="16" height="16" viewBox="0 0 16 16" fill="none" xmlns="http://www.w3.org/2000/svg">
<path d="M2.34052 8.13498C2.34052 10.3715 3.64052 12.306 5.52602 13.2205L2.83051 5.83398C2.51651 6.53748 2.34052 7.31498 2.34052 8.13498ZM11.808 7.84948C11.808 7.15098 11.5565 6.66698 11.342 6.29048C11.0555 5.82448 10.7875 5.43098 10.7875 4.96448C10.7875 4.44498 11.18 3.96148 11.7365 3.96148C11.7605 3.96148 11.785 3.96498 11.809 3.96648C10.804 3.04548 9.46452 2.48248 7.99302 2.48248C6.01802 2.48248 4.28101 3.49598 3.27101 5.03048C3.40401 5.03448 3.52852 5.03748 3.63452 5.03748C4.22602 5.03748 5.14101 4.96498 5.14101 4.96498C5.44501 4.94798 5.48101 5.39448 5.17651 5.43098C5.17651 5.43098 4.87102 5.46648 4.53002 5.48498L6.58852 11.6065L7.82551 7.89748L6.94452 5.48498C6.64002 5.46648 6.35202 5.43098 6.35202 5.43098C6.04702 5.41248 6.08352 4.94798 6.38852 4.96498C6.38852 4.96498 7.32102 5.03748 7.87652 5.03748C8.46752 5.03748 9.38352 4.96498 9.38352 4.96498C9.68702 4.94798 9.72302 5.39448 9.41852 5.43098C9.41852 5.43098 9.11302 5.46648 8.77252 5.48498L10.815 11.56L11.379 9.67698C11.6655 8.94198 11.8095 8.33398 11.8095 7.84948H11.808ZM8.09202 8.62948L6.39552 13.5575C6.90152 13.706 7.43651 13.787 7.99251 13.787C8.65001 13.787 9.28202 13.673 9.86952 13.466C9.85452 13.442 9.84052 13.4165 9.82902 13.389L8.09202 8.62948ZM12.952 5.42298C12.977 5.60348 12.991 5.79648 12.991 6.00498C12.991 6.57798 12.8835 7.22248 12.5605 8.02948L10.834 13.02C12.514 12.041 13.6435 10.221 13.6435 8.13548C13.6435 7.15198 13.393 6.22848 12.952 5.42298Z" fill="#2A7AC9"/>
</svg>
