<svg width="37" height="37" viewBox="0 0 37 37" fill="none" xmlns="http://www.w3.org/2000/svg">
<g clip-path="url(#clip0_168_170)">
<circle cx="18.5" cy="18.5" r="18.5" fill="#2C4A4D"/>
<path d="M15.6758 16.3075C15.663 16.5989 15.7431 16.7917 15.9162 16.886C16.1001 16.9706 16.3688 17.0239 16.7223 17.046C17.6268 17.1026 18.4048 17.0729 19.0562 16.9572C19.7076 16.8414 20.211 16.6537 20.5665 16.3942C20.9219 16.1347 21.1792 15.8534 21.3385 15.5503C21.5081 15.2478 21.6012 14.9093 21.6176 14.5346C21.646 13.8894 21.4451 13.3603 21.015 12.9473C20.5853 12.5239 19.8766 12.2813 18.889 12.2195C17.3399 12.1227 15.8629 12.5208 14.458 13.4138C14.0393 13.6902 13.778 13.8252 13.674 13.8187C13.4973 13.8077 13.4133 13.7033 13.422 13.5055C13.4334 13.2454 13.5981 12.9374 13.916 12.5816C14.509 11.8987 15.1742 11.3507 15.9116 10.9376C16.6491 10.5246 17.3175 10.2586 17.917 10.1395C18.5164 10.0205 19.1072 9.97919 19.6894 10.0156C20.438 10.0624 21.1103 10.1827 21.7064 10.3765C22.3026 10.5703 22.8272 10.8484 23.2805 11.2107C23.7341 11.5625 24.0783 12.0328 24.3131 12.6214C24.5483 13.1996 24.6493 13.8685 24.6159 14.6282C24.5446 16.2517 23.715 17.4572 22.1271 18.2449C20.5501 19.0228 18.4256 19.3283 15.7537 19.1612C15.0052 19.1143 14.1597 19.0197 13.2173 18.8773C12.7508 18.8168 12.527 18.5733 12.5457 18.1466C12.5965 16.9915 12.8007 16.1381 13.1585 15.5865C13.5168 15.0246 13.9679 14.6041 14.5119 14.325C15.0449 14.0558 15.4466 13.9296 15.7169 13.9465C15.9664 13.9621 16.0843 14.126 16.0706 14.4382C16.0651 14.5631 15.9997 14.8668 15.8742 15.3494C15.7492 15.8216 15.6831 16.141 15.6758 16.3075ZM12.5683 20.4803C12.5921 19.9391 12.8535 19.6842 13.3525 19.7154L14.6936 19.7992C14.964 19.8161 15.1488 19.8799 15.2482 19.9905C15.358 20.1017 15.4363 20.3361 15.4831 20.6939C15.7775 23.248 17.1047 24.5989 19.4647 24.7465C20.0573 24.7836 20.6167 24.7455 21.1429 24.6323C21.6691 24.5191 22.0765 24.3829 22.3649 24.2235C22.6638 24.0648 22.936 23.9201 23.1815 23.7893C23.4374 23.6593 23.6226 23.5978 23.7369 23.6049C23.976 23.6199 24.0899 23.7575 24.0785 24.0176C24.0689 24.2362 23.937 24.5097 23.6828 24.8381C23.4286 25.1666 23.0697 25.5042 22.6062 25.8508C22.1536 26.1878 21.5317 26.4619 20.7405 26.6733C19.9593 26.8958 19.1165 26.9787 18.212 26.9222C16.3406 26.8051 14.9098 26.1522 13.9195 24.9632C12.9401 23.7645 12.4897 22.2702 12.5683 20.4803Z" fill="white"/>
</g>
<defs>
<clipPath id="clip0_168_170">
<rect width="37" height="37" fill="white"/>
</clipPath>
</defs>
</svg>
